<svg id="visual" viewBox="0 0 900 50" width="900" height="50" xmlns="http://www.w3.org/2000/svg" xmlns:xlink="http://www.w3.org/1999/xlink" version="1.1"><path d="M0 22L7.8 22C15.7 22 31.3 22 47.2 21.8C63 21.7 79 21.3 94.8 22.2C110.7 23 126.3 25 142 24.7C157.7 24.3 173.3 21.7 189.2 20.3C205 19 221 19 236.8 19.3C252.7 19.7 268.3 20.3 284.2 21.5C300 22.7 316 24.3 331.8 25.5C347.7 26.7 363.3 27.3 379 27.7C394.7 28 410.3 28 426.2 26.7C442 25.3 458 22.7 473.8 21.3C489.7 20 505.3 20 521 20.7C536.7 21.3 552.3 22.7 568.2 23C584 23.3 600 22.7 615.8 22.7C631.7 22.7 647.3 23.3 663.2 24.2C679 25 695 26 710.8 26.7C726.7 27.3 742.3 27.7 758 26.7C773.7 25.7 789.3 23.3 805.2 23.2C821 23 837 25 852.8 24.8C868.7 24.7 884.3 22.3 892.2 21.2L900 20L900 51L892.2 51C884.3 51 868.7 51 852.8 51C837 51 821 51 805.2 51C789.3 51 773.7 51 758 51C742.3 51 726.7 51 710.8 51C695 51 679 51 663.2 51C647.3 51 631.7 51 615.8 51C600 51 584 51 568.2 51C552.3 51 536.7 51 521 51C505.3 51 489.7 51 473.8 51C458 51 442 51 426.2 51C410.3 51 394.7 51 379 51C363.3 51 347.7 51 331.8 51C316 51 300 51 284.2 51C268.3 51 252.7 51 236.8 51C221 51 205 51 189.2 51C173.3 51 157.7 51 142 51C126.3 51 110.7 51 94.8 51C79 51 63 51 47.2 51C31.3 51 15.7 51 7.8 51L0 51Z" fill="#100F0F" stroke-linecap="round" stroke-linejoin="miter"></path></svg>